<svg id="visual" viewBox="0 0 1920 1080" width="1920" height="1080" xmlns="http://www.w3.org/2000/svg" xmlns:xlink="http://www.w3.org/1999/xlink" version="1.1"><rect x="0" y="0" width="1920" height="1080" fill="#f9fafa"></rect><defs><linearGradient id="grad1_0" x1="43.8%" y1="0%" x2="100%" y2="100%"><stop offset="14.444444444444446%" stop-color="#001122" stop-opacity="1"></stop><stop offset="85.55555555555554%" stop-color="#001122" stop-opacity="1"></stop></linearGradient></defs><defs><linearGradient id="grad1_1" x1="43.8%" y1="0%" x2="100%" y2="100%"><stop offset="14.444444444444446%" stop-color="#001122" stop-opacity="1"></stop><stop offset="85.55555555555554%" stop-color="#465761" stop-opacity="1"></stop></linearGradient></defs><defs><linearGradient id="grad1_2" x1="43.8%" y1="0%" x2="100%" y2="100%"><stop offset="14.444444444444446%" stop-color="#9aa5a9" stop-opacity="1"></stop><stop offset="85.55555555555554%" stop-color="#465761" stop-opacity="1"></stop></linearGradient></defs><defs><linearGradient id="grad1_3" x1="43.8%" y1="0%" x2="100%" y2="100%"><stop offset="14.444444444444446%" stop-color="#9aa5a9" stop-opacity="1"></stop><stop offset="85.55555555555554%" stop-color="#f9fafa" stop-opacity="1"></stop></linearGradient></defs><defs><linearGradient id="grad2_0" x1="0%" y1="0%" x2="56.3%" y2="100%"><stop offset="14.444444444444446%" stop-color="#001122" stop-opacity="1"></stop><stop offset="85.55555555555554%" stop-color="#001122" stop-opacity="1"></stop></linearGradient></defs><defs><linearGradient id="grad2_1" x1="0%" y1="0%" x2="56.3%" y2="100%"><stop offset="14.444444444444446%" stop-color="#465761" stop-opacity="1"></stop><stop offset="85.55555555555554%" stop-color="#001122" stop-opacity="1"></stop></linearGradient></defs><defs><linearGradient id="grad2_2" x1="0%" y1="0%" x2="56.3%" y2="100%"><stop offset="14.444444444444446%" stop-color="#465761" stop-opacity="1"></stop><stop offset="85.55555555555554%" stop-color="#9aa5a9" stop-opacity="1"></stop></linearGradient></defs><defs><linearGradient id="grad2_3" x1="0%" y1="0%" x2="56.3%" y2="100%"><stop offset="14.444444444444446%" stop-color="#f9fafa" stop-opacity="1"></stop><stop offset="85.55555555555554%" stop-color="#9aa5a9" stop-opacity="1"></stop></linearGradient></defs><g transform="translate(1920, 0)"><path d="M0 594C-110.1 582 -220.1 570 -297 514.4C-373.9 458.8 -417.6 359.5 -461.6 266.5C-505.6 173.5 -549.8 86.7 -594 0L0 0Z" fill="#c8cfd0"></path><path d="M0 445.5C-82.5 436.5 -165.1 427.5 -222.7 385.8C-280.4 344.1 -313.2 269.6 -346.2 199.9C-379.2 130.1 -412.3 65.1 -445.5 0L0 0Z" fill="#6e7d84"></path><path d="M0 297C-55 291 -110.1 285 -148.5 257.2C-186.9 229.4 -208.8 179.8 -230.8 133.3C-252.8 86.7 -274.9 43.4 -297 0L0 0Z" fill="#223341"></path><path d="M0 148.5C-27.5 145.5 -55 142.5 -74.2 128.6C-93.5 114.7 -104.4 89.9 -115.4 66.6C-126.4 43.4 -137.4 21.7 -148.5 0L0 0Z" fill="#001122"></path></g><g transform="translate(0, 1080)"><path d="M0 -594C65.9 -513.8 131.9 -433.5 227.5 -394C323.1 -354.6 448.4 -355.9 514.4 -297C580.4 -238.1 587.2 -119.1 594 0L0 0Z" fill="#c8cfd0"></path><path d="M0 -445.5C49.5 -385.3 98.9 -325.1 170.6 -295.5C242.3 -265.9 336.3 -266.9 385.8 -222.8C435.3 -178.6 440.4 -89.3 445.5 0L0 0Z" fill="#6e7d84"></path><path d="M0 -297C33 -256.9 65.9 -216.8 113.7 -197C161.6 -177.3 224.2 -177.9 257.2 -148.5C290.2 -119.1 293.6 -59.5 297 0L0 0Z" fill="#223341"></path><path d="M0 -148.5C16.5 -128.4 33 -108.4 56.9 -98.5C80.8 -88.6 112.1 -89 128.6 -74.3C145.1 -59.5 146.8 -29.8 148.5 0L0 0Z" fill="#001122"></path></g></svg>